<svg width="14" height="14" viewBox="0 0 14 14" fill="none" xmlns="http://www.w3.org/2000/svg">
<rect x="0.642057" y="0.425092" width="12.7677" height="12.7677" stroke="white" stroke-width="0.41186"/>
<g clip-path="url(#clip0_32_161)">
<path d="M6.9753 5.1437C6.04963 5.1437 5.30299 5.8865 5.30299 6.80739C5.30299 7.72828 6.04963 8.47108 6.9753 8.47108C7.90096 8.47108 8.6476 7.72828 8.6476 6.80739C8.6476 5.8865 7.90096 5.1437 6.9753 5.1437ZM6.9753 7.88901C6.37711 7.88901 5.88808 7.40394 5.88808 6.80739C5.88808 6.21084 6.37565 5.72578 6.9753 5.72578C7.57494 5.72578 8.06251 6.21084 8.06251 6.80739C8.06251 7.40394 7.57348 7.88901 6.9753 7.88901ZM9.10606 5.07565C9.10606 5.29139 8.93141 5.4637 8.71601 5.4637C8.49914 5.4637 8.32595 5.28995 8.32595 5.07565C8.32595 4.86136 8.5006 4.6876 8.71601 4.6876C8.93141 4.6876 9.10606 4.86136 9.10606 5.07565ZM10.2137 5.46949C10.1889 4.94968 10.0696 4.48923 9.68679 4.10987C9.30546 3.73051 8.84263 3.61178 8.32013 3.58572C7.78161 3.55531 6.16752 3.55531 5.62901 3.58572C5.10796 3.61033 4.64513 3.72906 4.26235 4.10842C3.87957 4.48779 3.76168 4.94823 3.73548 5.46804C3.70491 6.00378 3.70491 7.60955 3.73548 8.14529C3.76022 8.6651 3.87957 9.12555 4.26235 9.50491C4.64513 9.88427 5.10651 10.003 5.62901 10.0291C6.16752 10.0595 7.78161 10.0595 8.32013 10.0291C8.84263 10.0045 9.30546 9.88572 9.68679 9.50491C10.0681 9.12555 10.1875 8.6651 10.2137 8.14529C10.2442 7.60955 10.2442 6.00523 10.2137 5.46949ZM9.51795 8.72012C9.40443 9.00392 9.18466 9.22256 8.89794 9.33695C8.46858 9.50636 7.44977 9.46726 6.9753 9.46726C6.50082 9.46726 5.48055 9.50491 5.05265 9.33695C4.76739 9.22401 4.54762 9.00537 4.43264 8.72012C4.26235 8.29298 4.30165 7.27942 4.30165 6.80739C4.30165 6.33536 4.2638 5.32035 4.43264 4.89466C4.54616 4.61086 4.76593 4.39222 5.05265 4.27783C5.48201 4.10842 6.50082 4.14752 6.9753 4.14752C7.44977 4.14752 8.47004 4.10987 8.89794 4.27783C9.1832 4.39077 9.40297 4.60941 9.51795 4.89466C9.68824 5.3218 9.64894 6.33536 9.64894 6.80739C9.64894 7.27942 9.68824 8.29443 9.51795 8.72012Z" fill="white"/>
</g>
<defs>
<clipPath id="clip0_32_161">
<rect width="6.58976" height="7.41348" fill="white" transform="translate(3.73105 3.1019)"/>
</clipPath>
</defs>
</svg>
