<svg width="14" height="14" viewBox="0 0 14 14" fill="none" xmlns="http://www.w3.org/2000/svg">
<rect x="0.8728" y="0.425092" width="12.7677" height="12.7677" stroke="white" stroke-width="0.41186"/>
<g clip-path="url(#clip0_32_156)">
<path d="M5.42487 9.69154V5.52332H4.02694V9.69154H5.42487ZM4.72608 4.95388C5.21357 4.95388 5.517 4.63381 5.517 4.23383C5.50792 3.82483 5.21358 3.51364 4.73533 3.51364C4.25716 3.51364 3.94446 3.82483 3.94446 4.23383C3.94446 4.63383 4.24782 4.95388 4.71696 4.95388H4.72604H4.72608ZM6.19862 9.69154H7.59655V7.36381C7.59655 7.23923 7.60563 7.11478 7.64255 7.02573C7.74361 6.77682 7.97362 6.51903 8.35979 6.51903C8.86564 6.51903 9.06801 6.90127 9.06801 7.46161V9.69151H10.4659V7.30149C10.4659 6.02118 9.77619 5.42547 8.85644 5.42547C8.10231 5.42547 7.7712 5.84323 7.58725 6.12776H7.59658V5.52324H6.19865C6.21699 5.91436 6.19865 9.69146 6.19865 9.69146L6.19862 9.69154Z" fill="white"/>
</g>
<defs>
<clipPath id="clip0_32_156">
<rect width="6.58976" height="6.1779" fill="white" transform="translate(3.96173 3.5139)"/>
</clipPath>
</defs>
</svg>
