<svg width="66" height="15" viewBox="0 0 66 15" fill="none" xmlns="http://www.w3.org/2000/svg">
<path d="M19.2956 6.76391V9.17957H18.4819V6.13325H19.2449L19.2956 6.76391ZM19.183 7.54942H18.9577C18.9577 7.33732 18.9831 7.14212 19.0338 6.96381C19.0863 6.78362 19.1623 6.62783 19.2618 6.49644C19.3632 6.36318 19.488 6.25995 19.6363 6.18674C19.7845 6.11354 19.9563 6.07694 20.1515 6.07694C20.2866 6.07694 20.4105 6.09759 20.5231 6.13888C20.6357 6.1783 20.7324 6.24118 20.8131 6.32752C20.8957 6.41198 20.9595 6.52272 21.0046 6.65974C21.0496 6.79488 21.0721 6.95724 21.0721 7.14681V9.17957H20.2613V7.23691C20.2613 7.09801 20.2425 6.99102 20.205 6.91595C20.1674 6.84087 20.1139 6.78831 20.0445 6.75828C19.9769 6.72825 19.8953 6.71323 19.7996 6.71323C19.6944 6.71323 19.6025 6.73482 19.5236 6.77799C19.4467 6.82116 19.3829 6.88122 19.3322 6.95818C19.2815 7.03326 19.244 7.12147 19.2196 7.22283C19.1952 7.32419 19.183 7.43305 19.183 7.54942ZM20.9961 7.45651L20.7061 7.49311C20.7061 7.29415 20.7305 7.10927 20.7793 6.93847C20.83 6.76767 20.9041 6.61751 21.0017 6.488C21.1012 6.35849 21.2242 6.25807 21.3706 6.18674C21.517 6.11354 21.6859 6.07694 21.8774 6.07694C22.0238 6.07694 22.157 6.09853 22.2771 6.1417C22.3973 6.18299 22.4996 6.24962 22.584 6.34159C22.6704 6.43169 22.7361 6.54994 22.7811 6.69634C22.828 6.84274 22.8515 7.02199 22.8515 7.23409V9.17957H22.0378V7.23409C22.0378 7.09332 22.0191 6.98633 21.9815 6.91313C21.9459 6.83805 21.8933 6.78643 21.8239 6.75828C21.7563 6.72825 21.6756 6.71323 21.5817 6.71323C21.4841 6.71323 21.3987 6.73294 21.3255 6.77236C21.2523 6.8099 21.1913 6.86245 21.1425 6.93002C21.0937 6.99759 21.0571 7.07643 21.0327 7.16652C21.0083 7.25474 20.9961 7.3514 20.9961 7.45651ZM25.1236 8.4926V7.13555C25.1236 7.03795 25.1076 6.95442 25.0757 6.88498C25.0438 6.81365 24.9941 6.75828 24.9265 6.71886C24.8608 6.67945 24.7754 6.65974 24.6703 6.65974C24.5802 6.65974 24.5023 6.67569 24.4366 6.7076C24.3709 6.73763 24.3202 6.78174 24.2846 6.83993C24.2489 6.89624 24.2311 6.96287 24.2311 7.03983H23.4202C23.4202 6.91031 23.4503 6.78737 23.5103 6.671C23.5704 6.55463 23.6577 6.45234 23.7721 6.36412C23.8866 6.27402 24.0227 6.20364 24.1804 6.15296C24.3399 6.10228 24.5182 6.07694 24.7153 6.07694C24.9518 6.07694 25.162 6.11636 25.346 6.19519C25.5299 6.27402 25.6745 6.39227 25.7796 6.54994C25.8866 6.7076 25.94 6.90468 25.94 7.14118V8.44473C25.94 8.61178 25.9504 8.7488 25.971 8.85579C25.9917 8.9609 26.0217 9.05287 26.0611 9.1317V9.17957H25.2418C25.2024 9.09698 25.1724 8.99375 25.1517 8.86987C25.1329 8.74411 25.1236 8.61835 25.1236 8.4926ZM25.2306 7.32419L25.2362 7.7831H24.7829C24.6759 7.7831 24.583 7.7953 24.5042 7.8197C24.4253 7.8441 24.3606 7.87883 24.3099 7.92388C24.2592 7.96705 24.2217 8.01772 24.1973 8.07591C24.1748 8.1341 24.1635 8.19791 24.1635 8.26736C24.1635 8.33681 24.1795 8.39969 24.2114 8.456C24.2433 8.51043 24.2893 8.5536 24.3493 8.58551C24.4094 8.61554 24.4798 8.63055 24.5605 8.63055C24.6825 8.63055 24.7885 8.60615 24.8786 8.55735C24.9687 8.50855 25.0382 8.44849 25.087 8.37716C25.1376 8.30584 25.1639 8.23827 25.1658 8.17445L25.3798 8.51794C25.3497 8.59489 25.3084 8.67466 25.2559 8.75725C25.2052 8.83983 25.1405 8.91773 25.0616 8.99093C24.9828 9.06226 24.888 9.12138 24.7773 9.1683C24.6665 9.21335 24.5351 9.23587 24.3831 9.23587C24.1898 9.23587 24.0143 9.1974 23.8566 9.12044C23.7008 9.04161 23.5769 8.93368 23.485 8.79666C23.3949 8.65777 23.3498 8.5001 23.3498 8.32367C23.3498 8.16413 23.3799 8.02242 23.4399 7.89854C23.5 7.77466 23.5882 7.67049 23.7046 7.58602C23.8228 7.49968 23.9702 7.43493 24.1466 7.39176C24.323 7.34671 24.5276 7.32419 24.7604 7.32419H25.2306ZM27.359 6.78362V9.17957H26.5482V6.13325H27.3084L27.359 6.78362ZM27.2408 7.54942H27.0212C27.0212 7.32419 27.0503 7.12147 27.1085 6.94128C27.1666 6.75922 27.2483 6.60437 27.3534 6.47674C27.4585 6.34722 27.5833 6.24868 27.7279 6.18111C27.8743 6.11167 28.0376 6.07694 28.2177 6.07694C28.3604 6.07694 28.4908 6.09759 28.6091 6.13888C28.7273 6.18018 28.8287 6.24587 28.9132 6.33596C28.9995 6.42606 29.0652 6.54524 29.1102 6.69353C29.1572 6.84181 29.1806 7.02293 29.1806 7.23691V9.17957H28.3641V7.23409C28.3641 7.09895 28.3454 6.99384 28.3078 6.91876C28.2703 6.84368 28.2149 6.79113 28.1417 6.7611C28.0704 6.72919 27.9822 6.71323 27.8771 6.71323C27.7682 6.71323 27.6734 6.73482 27.5927 6.77799C27.5139 6.82116 27.4482 6.88122 27.3956 6.95818C27.345 7.03326 27.3065 7.12147 27.2802 7.22283C27.2539 7.32419 27.2408 7.43305 27.2408 7.54942ZM31.7258 6.13325H32.4606V9.07821C32.4606 9.356 32.3987 9.59156 32.2748 9.78489C32.1528 9.98009 31.982 10.1274 31.7624 10.2269C31.5428 10.3283 31.2875 10.3789 30.9966 10.3789C30.869 10.3789 30.7338 10.3621 30.5912 10.3283C30.4504 10.2945 30.3153 10.2419 30.1857 10.1706C30.0581 10.0993 29.9511 10.0092 29.8648 9.90032L30.2223 9.42169C30.3162 9.53056 30.4251 9.61502 30.5489 9.67508C30.6728 9.73702 30.8098 9.76799 30.96 9.76799C31.1064 9.76799 31.2303 9.74078 31.3316 9.68635C31.433 9.63379 31.5109 9.5559 31.5653 9.45266C31.6197 9.35131 31.647 9.22837 31.647 9.08384V6.83711L31.7258 6.13325ZM29.6761 7.69301V7.63388C29.6761 7.40114 29.7043 7.18998 29.7606 7.00041C29.8188 6.80896 29.9004 6.64472 30.0056 6.50771C30.1125 6.37069 30.242 6.26464 30.3941 6.18956C30.5461 6.11448 30.7179 6.07694 30.9093 6.07694C31.112 6.07694 31.2819 6.11448 31.4189 6.18956C31.5559 6.26464 31.6685 6.37163 31.7568 6.51052C31.845 6.64754 31.9135 6.8099 31.9623 6.99759C32.013 7.18341 32.0524 7.38706 32.0805 7.60855V7.73806C32.0524 7.95015 32.0102 8.14723 31.9538 8.3293C31.8975 8.51137 31.8234 8.67091 31.7314 8.80793C31.6394 8.94307 31.525 9.04818 31.3879 9.12326C31.2528 9.19834 31.0914 9.23587 30.9037 9.23587C30.716 9.23587 30.5461 9.1974 30.3941 9.12044C30.2439 9.04349 30.1154 8.93556 30.0084 8.79666C29.9014 8.65777 29.8188 8.49447 29.7606 8.30678C29.7043 8.11908 29.6761 7.91449 29.6761 7.69301ZM30.487 7.63388V7.69301C30.487 7.81877 30.4992 7.93608 30.5236 8.04494C30.548 8.1538 30.5855 8.25047 30.6362 8.33493C30.6888 8.41752 30.7535 8.48227 30.8305 8.5292C30.9093 8.57424 31.0022 8.59677 31.1092 8.59677C31.2575 8.59677 31.3786 8.5658 31.4724 8.50386C31.5662 8.44004 31.6366 8.35276 31.6836 8.24202C31.7305 8.13128 31.7577 8.00365 31.7652 7.85912V7.4903C31.7615 7.37205 31.7455 7.266 31.7173 7.17215C31.6892 7.07643 31.6498 6.99478 31.5991 6.92721C31.5484 6.85964 31.4827 6.80708 31.402 6.76954C31.3213 6.732 31.2256 6.71323 31.1148 6.71323C31.0079 6.71323 30.9149 6.73763 30.8361 6.78643C30.7592 6.83336 30.6944 6.89811 30.6418 6.9807C30.5912 7.06329 30.5527 7.16089 30.5264 7.27351C30.5001 7.38425 30.487 7.50437 30.487 7.63388ZM34.3498 8.6024C34.4493 8.6024 34.5375 8.58363 34.6144 8.54609C34.6914 8.50667 34.7515 8.45224 34.7946 8.38279C34.8397 8.31147 34.8631 8.22794 34.865 8.13222H35.628C35.6261 8.34619 35.5689 8.5367 35.4563 8.70375C35.3436 8.86893 35.1925 8.99938 35.003 9.0951C34.8134 9.18895 34.6013 9.23587 34.3667 9.23587C34.1302 9.23587 33.9237 9.19646 33.7473 9.11763C33.5727 9.03879 33.4273 8.92993 33.3109 8.79103C33.1945 8.65026 33.1072 8.48697 33.049 8.30115C32.9909 8.11345 32.9618 7.91261 32.9618 7.69864V7.61699C32.9618 7.40114 32.9909 7.20031 33.049 7.01449C33.1072 6.82679 33.1945 6.66349 33.3109 6.5246C33.4273 6.38383 33.5727 6.27402 33.7473 6.19519C33.9218 6.11636 34.1264 6.07694 34.361 6.07694C34.6107 6.07694 34.8294 6.1248 35.017 6.22053C35.2066 6.31626 35.3549 6.45327 35.4619 6.63159C35.5708 6.80802 35.6261 7.0173 35.628 7.25943H34.865C34.8631 7.15807 34.8416 7.0661 34.8003 6.98352C34.7608 6.90093 34.7027 6.83524 34.6257 6.78643C34.5506 6.73576 34.4577 6.71042 34.347 6.71042C34.2287 6.71042 34.1321 6.73576 34.057 6.78643C33.9819 6.83524 33.9237 6.90281 33.8824 6.98915C33.8411 7.07361 33.812 7.17027 33.7951 7.27914C33.7801 7.38613 33.7726 7.49874 33.7726 7.61699V7.69864C33.7726 7.81689 33.7801 7.93045 33.7951 8.03931C33.8102 8.14817 33.8383 8.24484 33.8796 8.3293C33.9228 8.41376 33.9819 8.4804 34.057 8.5292C34.1321 8.578 34.2297 8.6024 34.3498 8.6024ZM35.9687 7.68738V7.62825C35.9687 7.40489 36.0006 7.19937 36.0644 7.01167C36.1282 6.8221 36.2211 6.65786 36.3431 6.51897C36.4651 6.38007 36.6153 6.27215 36.7936 6.19519C36.9719 6.11636 37.1765 6.07694 37.4074 6.07694C37.6382 6.07694 37.8438 6.11636 38.0239 6.19519C38.2041 6.27215 38.3552 6.38007 38.4772 6.51897C38.6011 6.65786 38.695 6.8221 38.7588 7.01167C38.8226 7.19937 38.8545 7.40489 38.8545 7.62825V7.68738C38.8545 7.90886 38.8226 8.11439 38.7588 8.30396C38.695 8.49166 38.6011 8.65589 38.4772 8.79666C38.3552 8.93556 38.2051 9.04349 38.0268 9.12044C37.8485 9.1974 37.6439 9.23587 37.413 9.23587C37.1821 9.23587 36.9766 9.1974 36.7964 9.12044C36.6181 9.04349 36.467 8.93556 36.3431 8.79666C36.2211 8.65589 36.1282 8.49166 36.0644 8.30396C36.0006 8.11439 35.9687 7.90886 35.9687 7.68738ZM36.7795 7.62825V7.68738C36.7795 7.81501 36.7908 7.9342 36.8133 8.04494C36.8358 8.15568 36.8715 8.25328 36.9203 8.33775C36.971 8.42033 37.0367 8.48509 37.1174 8.53201C37.1981 8.57894 37.2966 8.6024 37.413 8.6024C37.5256 8.6024 37.6223 8.57894 37.703 8.53201C37.7837 8.48509 37.8485 8.42033 37.8973 8.33775C37.9461 8.25328 37.9817 8.15568 38.0042 8.04494C38.0286 7.9342 38.0408 7.81501 38.0408 7.68738V7.62825C38.0408 7.50437 38.0286 7.388 38.0042 7.27914C37.9817 7.1684 37.9451 7.0708 37.8944 6.98633C37.8456 6.89999 37.7809 6.83242 37.7002 6.78362C37.6195 6.73482 37.5219 6.71042 37.4074 6.71042C37.2929 6.71042 37.1953 6.73482 37.1146 6.78362C37.0357 6.83242 36.971 6.89999 36.9203 6.98633C36.8715 7.0708 36.8358 7.1684 36.8133 7.27914C36.7908 7.388 36.7795 7.50437 36.7795 7.62825ZM41.1519 8.51512V4.85504H41.9684V9.17957H41.2336L41.1519 8.51512ZM39.2261 7.69301V7.63388C39.2261 7.40114 39.2524 7.18998 39.305 7.00041C39.3575 6.80896 39.4345 6.64472 39.5358 6.50771C39.6372 6.37069 39.762 6.26464 39.9103 6.18956C40.0586 6.11448 40.2275 6.07694 40.4171 6.07694C40.5954 6.07694 40.7512 6.11448 40.8844 6.18956C41.0196 6.26464 41.1341 6.37163 41.2279 6.51052C41.3237 6.64754 41.4006 6.8099 41.4588 6.99759C41.517 7.18341 41.5592 7.38706 41.5855 7.60855V7.73806C41.5592 7.95015 41.517 8.14723 41.4588 8.3293C41.4006 8.51137 41.3237 8.67091 41.2279 8.80793C41.1341 8.94307 41.0196 9.04818 40.8844 9.12326C40.7493 9.19834 40.5916 9.23587 40.4114 9.23587C40.2219 9.23587 40.0529 9.1974 39.9047 9.12044C39.7583 9.04349 39.6344 8.93556 39.533 8.79666C39.4335 8.65777 39.3575 8.49447 39.305 8.30678C39.2524 8.11908 39.2261 7.91449 39.2261 7.69301ZM40.037 7.63388V7.69301C40.037 7.81877 40.0464 7.93608 40.0651 8.04494C40.0858 8.1538 40.1186 8.25047 40.1637 8.33493C40.2106 8.41752 40.2707 8.48227 40.3439 8.5292C40.419 8.57424 40.51 8.59677 40.617 8.59677C40.7559 8.59677 40.8704 8.5658 40.9605 8.50386C41.0506 8.44004 41.1191 8.35276 41.166 8.24202C41.2148 8.13128 41.2429 8.00365 41.2504 7.85912V7.4903C41.2448 7.37205 41.2279 7.266 41.1998 7.17215C41.1735 7.07643 41.1341 6.99478 41.0815 6.92721C41.0308 6.85964 40.967 6.80708 40.8901 6.76954C40.815 6.732 40.7258 6.71323 40.6226 6.71323C40.5175 6.71323 40.4274 6.73763 40.3523 6.78643C40.2772 6.83336 40.2162 6.89811 40.1693 6.9807C40.1243 7.06329 40.0905 7.16089 40.068 7.27351C40.0473 7.38425 40.037 7.50437 40.037 7.63388ZM43.4578 6.13325V9.17957H42.6441V6.13325H43.4578ZM42.5934 5.33929C42.5934 5.22105 42.6347 5.12344 42.7173 5.04649C42.7999 4.96953 42.9106 4.93105 43.0495 4.93105C43.1865 4.93105 43.2963 4.96953 43.3789 5.04649C43.4634 5.12344 43.5056 5.22105 43.5056 5.33929C43.5056 5.45754 43.4634 5.55515 43.3789 5.6321C43.2963 5.70906 43.1865 5.74753 43.0495 5.74753C42.9106 5.74753 42.7999 5.70906 42.7173 5.6321C42.6347 5.55515 42.5934 5.45754 42.5934 5.33929ZM44.9218 6.78362V9.17957H44.1109V6.13325H44.8711L44.9218 6.78362ZM44.8035 7.54942H44.5839C44.5839 7.32419 44.613 7.12147 44.6712 6.94128C44.7294 6.75922 44.8111 6.60437 44.9162 6.47674C45.0213 6.34722 45.1461 6.24868 45.2906 6.18111C45.437 6.11167 45.6003 6.07694 45.7805 6.07694C45.9232 6.07694 46.0536 6.09759 46.1719 6.13888C46.2901 6.18018 46.3915 6.24587 46.4759 6.33596C46.5623 6.42606 46.628 6.54524 46.673 6.69353C46.7199 6.84181 46.7434 7.02293 46.7434 7.23691V9.17957H45.9269V7.23409C45.9269 7.09895 45.9081 6.99384 45.8706 6.91876C45.8331 6.84368 45.7777 6.79113 45.7045 6.7611C45.6332 6.72919 45.5449 6.71323 45.4398 6.71323C45.331 6.71323 45.2362 6.73482 45.1555 6.77799C45.0766 6.82116 45.0109 6.88122 44.9584 6.95818C44.9077 7.03326 44.8692 7.12147 44.843 7.22283C44.8167 7.32419 44.8035 7.43305 44.8035 7.54942ZM49.2886 6.13325H50.0234V9.07821C50.0234 9.356 49.9614 9.59156 49.8376 9.78489C49.7156 9.98009 49.5448 10.1274 49.3252 10.2269C49.1055 10.3283 48.8503 10.3789 48.5594 10.3789C48.4317 10.3789 48.2966 10.3621 48.1539 10.3283C48.0132 10.2945 47.878 10.2419 47.7485 10.1706C47.6209 10.0993 47.5139 10.0092 47.4275 9.90032L47.7851 9.42169C47.879 9.53056 47.9878 9.61502 48.1117 9.67508C48.2356 9.73702 48.3726 9.76799 48.5228 9.76799C48.6692 9.76799 48.793 9.74078 48.8944 9.68635C48.9957 9.63379 49.0736 9.5559 49.1281 9.45266C49.1825 9.35131 49.2097 9.22837 49.2097 9.08384V6.83711L49.2886 6.13325ZM47.2389 7.69301V7.63388C47.2389 7.40114 47.2671 7.18998 47.3234 7.00041C47.3816 6.80896 47.4632 6.64472 47.5683 6.50771C47.6753 6.37069 47.8048 6.26464 47.9568 6.18956C48.1089 6.11448 48.2806 6.07694 48.4721 6.07694C48.6748 6.07694 48.8447 6.11448 48.9817 6.18956C49.1187 6.26464 49.2313 6.37163 49.3195 6.51052C49.4077 6.64754 49.4762 6.8099 49.5251 6.99759C49.5757 7.18341 49.6151 7.38706 49.6433 7.60855V7.73806C49.6151 7.95015 49.5729 8.14723 49.5166 8.3293C49.4603 8.51137 49.3862 8.67091 49.2942 8.80793C49.2022 8.94307 49.0877 9.04818 48.9507 9.12326C48.8156 9.19834 48.6541 9.23587 48.4664 9.23587C48.2787 9.23587 48.1089 9.1974 47.9568 9.12044C47.8067 9.04349 47.6781 8.93556 47.5711 8.79666C47.4641 8.65777 47.3816 8.49447 47.3234 8.30678C47.2671 8.11908 47.2389 7.91449 47.2389 7.69301ZM48.0498 7.63388V7.69301C48.0498 7.81877 48.062 7.93608 48.0864 8.04494C48.1108 8.1538 48.1483 8.25047 48.199 8.33493C48.2515 8.41752 48.3163 8.48227 48.3932 8.5292C48.4721 8.57424 48.565 8.59677 48.672 8.59677C48.8203 8.59677 48.9413 8.5658 49.0352 8.50386C49.129 8.44004 49.1994 8.35276 49.2463 8.24202C49.2932 8.13128 49.3205 8.00365 49.328 7.85912V7.4903C49.3242 7.37205 49.3083 7.266 49.2801 7.17215C49.252 7.07643 49.2125 6.99478 49.1619 6.92721C49.1112 6.85964 49.0455 6.80708 48.9648 6.76954C48.8841 6.732 48.7883 6.71323 48.6776 6.71323C48.5706 6.71323 48.4777 6.73763 48.3989 6.78643C48.3219 6.83336 48.2572 6.89811 48.2046 6.9807C48.1539 7.06329 48.1155 7.16089 48.0892 7.27351C48.0629 7.38425 48.0498 7.50437 48.0498 7.63388ZM54.2747 8.10688C54.2747 8.03368 54.2634 7.96798 54.2409 7.9098C54.2203 7.84974 54.1809 7.7953 54.1227 7.7465C54.0645 7.69582 53.9828 7.64608 53.8777 7.59728C53.7726 7.54848 53.6365 7.4978 53.4695 7.44525C53.2837 7.38519 53.1072 7.31762 52.9402 7.24254C52.775 7.16746 52.6286 7.08018 52.501 6.9807C52.3752 6.87934 52.2757 6.76203 52.2025 6.62877C52.1312 6.49551 52.0956 6.34066 52.0956 6.16422C52.0956 5.99342 52.1331 5.83857 52.2082 5.69967C52.2832 5.5589 52.3884 5.43877 52.5235 5.33929C52.6586 5.23794 52.8182 5.16004 53.0021 5.10561C53.1879 5.05118 53.3916 5.02396 53.6131 5.02396C53.9153 5.02396 54.179 5.0784 54.4042 5.18726C54.6295 5.29612 54.804 5.44534 54.9279 5.63492C55.0536 5.82449 55.1165 6.04128 55.1165 6.28529H54.2775C54.2775 6.16516 54.2522 6.06005 54.2015 5.96995C54.1527 5.87798 54.0776 5.80572 53.9763 5.75317C53.8768 5.70061 53.751 5.67433 53.599 5.67433C53.4526 5.67433 53.3306 5.69686 53.233 5.7419C53.1354 5.78507 53.0622 5.8442 53.0134 5.91928C52.9646 5.99248 52.9402 6.07507 52.9402 6.16704C52.9402 6.23648 52.9571 6.29936 52.9909 6.35567C53.0265 6.41198 53.0791 6.46454 53.1485 6.51334C53.218 6.56214 53.3034 6.60812 53.4047 6.65129C53.5061 6.69446 53.6234 6.7367 53.7567 6.77799C53.98 6.84556 54.1762 6.92158 54.3451 7.00604C54.5159 7.0905 54.6585 7.18529 54.773 7.2904C54.8875 7.39551 54.9739 7.5147 55.0321 7.64796C55.0902 7.78123 55.1193 7.93232 55.1193 8.10125C55.1193 8.27956 55.0846 8.4391 55.0152 8.57988C54.9457 8.72065 54.8453 8.83983 54.7139 8.93744C54.5825 9.03504 54.4258 9.10918 54.2437 9.15986C54.0617 9.21054 53.858 9.23587 53.6328 9.23587C53.4301 9.23587 53.2302 9.2096 53.0331 9.15704C52.836 9.10261 52.6568 9.02096 52.4953 8.9121C52.3358 8.80323 52.2082 8.66434 52.1124 8.49541C52.0167 8.32648 51.9689 8.12659 51.9689 7.89572H52.8163C52.8163 8.02335 52.836 8.13128 52.8754 8.2195C52.9148 8.30772 52.9702 8.37904 53.0415 8.43347C53.1147 8.4879 53.2011 8.52732 53.3006 8.55172C53.4019 8.57612 53.5127 8.58832 53.6328 8.58832C53.7792 8.58832 53.8993 8.56767 53.9932 8.52638C54.0889 8.48509 54.1593 8.42784 54.2043 8.35464C54.2512 8.28144 54.2747 8.19885 54.2747 8.10688ZM57.1352 6.13325V6.7076H55.3615V6.13325H57.1352ZM55.8007 5.38153H56.6115V8.26173C56.6115 8.34995 56.6228 8.41752 56.6453 8.46444C56.6697 8.51137 56.7054 8.54421 56.7523 8.56298C56.7992 8.57988 56.8584 8.58832 56.9297 8.58832C56.9804 8.58832 57.0254 8.58644 57.0648 8.58269C57.1061 8.57706 57.1408 8.57143 57.169 8.5658L57.1718 9.16267C57.1024 9.1852 57.0273 9.20303 56.9466 9.21617C56.8659 9.22931 56.7767 9.23587 56.6791 9.23587C56.5008 9.23587 56.345 9.20678 56.2117 9.1486C56.0804 9.08853 55.979 8.99281 55.9077 8.86142C55.8363 8.73003 55.8007 8.55735 55.8007 8.34338V5.38153ZM57.3942 7.68738V7.62825C57.3942 7.40489 57.4261 7.19937 57.4899 7.01167C57.5538 6.8221 57.6467 6.65786 57.7687 6.51897C57.8907 6.38007 58.0408 6.27215 58.2192 6.19519C58.3975 6.11636 58.6021 6.07694 58.8329 6.07694C59.0638 6.07694 59.2693 6.11636 59.4495 6.19519C59.6297 6.27215 59.7808 6.38007 59.9028 6.51897C60.0267 6.65786 60.1205 6.8221 60.1843 7.01167C60.2481 7.19937 60.2801 7.40489 60.2801 7.62825V7.68738C60.2801 7.90886 60.2481 8.11439 60.1843 8.30396C60.1205 8.49166 60.0267 8.65589 59.9028 8.79666C59.7808 8.93556 59.6306 9.04349 59.4523 9.12044C59.274 9.1974 59.0694 9.23587 58.8385 9.23587C58.6077 9.23587 58.4022 9.1974 58.222 9.12044C58.0437 9.04349 57.8926 8.93556 57.7687 8.79666C57.6467 8.65589 57.5538 8.49166 57.4899 8.30396C57.4261 8.11439 57.3942 7.90886 57.3942 7.68738ZM58.2051 7.62825V7.68738C58.2051 7.81501 58.2163 7.9342 58.2389 8.04494C58.2614 8.15568 58.297 8.25328 58.3458 8.33775C58.3965 8.42033 58.4622 8.48509 58.5429 8.53201C58.6236 8.57894 58.7222 8.6024 58.8385 8.6024C58.9512 8.6024 59.0478 8.57894 59.1285 8.53201C59.2092 8.48509 59.274 8.42033 59.3228 8.33775C59.3716 8.25328 59.4073 8.15568 59.4298 8.04494C59.4542 7.9342 59.4664 7.81501 59.4664 7.68738V7.62825C59.4664 7.50437 59.4542 7.388 59.4298 7.27914C59.4073 7.1684 59.3707 7.0708 59.32 6.98633C59.2712 6.89999 59.2064 6.83242 59.1257 6.78362C59.045 6.73482 58.9474 6.71042 58.8329 6.71042C58.7184 6.71042 58.6208 6.73482 58.5401 6.78362C58.4613 6.83242 58.3965 6.89999 58.3458 6.98633C58.297 7.0708 58.2614 7.1684 58.2389 7.27914C58.2163 7.388 58.2051 7.50437 58.2051 7.62825ZM61.5892 6.7977V9.17957H60.7784V6.13325H61.5414L61.5892 6.7977ZM62.5071 6.11354L62.493 6.86527C62.4536 6.85964 62.4057 6.85494 62.3494 6.85119C62.295 6.84556 62.2452 6.84274 62.2002 6.84274C62.0857 6.84274 61.9862 6.85776 61.9018 6.88779C61.8192 6.91595 61.7497 6.95818 61.6934 7.01449C61.639 7.0708 61.5977 7.1393 61.5695 7.22001C61.5433 7.30072 61.5282 7.39269 61.5245 7.49593L61.3612 7.44525C61.3612 7.24817 61.3809 7.06704 61.4203 6.90187C61.4597 6.73482 61.517 6.58935 61.5921 6.46547C61.669 6.34159 61.7629 6.24587 61.8736 6.1783C61.9843 6.11073 62.111 6.07694 62.2537 6.07694C62.2987 6.07694 62.3447 6.0807 62.3916 6.0882C62.4386 6.09383 62.477 6.10228 62.5071 6.11354ZM64.2358 9.23587C63.9993 9.23587 63.7872 9.19834 63.5995 9.12326C63.4118 9.0463 63.2522 8.94025 63.1208 8.80511C62.9913 8.66997 62.8919 8.51324 62.8224 8.33493C62.753 8.15474 62.7182 7.96329 62.7182 7.76058V7.64796C62.7182 7.4171 62.7511 7.20594 62.8168 7.01449C62.8825 6.82304 62.9763 6.65692 63.0983 6.51615C63.2222 6.37538 63.3724 6.26745 63.5488 6.19238C63.7252 6.11542 63.9242 6.07694 64.1457 6.07694C64.3615 6.07694 64.553 6.1126 64.72 6.18393C64.8871 6.25525 65.0269 6.35661 65.1395 6.488C65.254 6.61938 65.3404 6.77705 65.3985 6.96099C65.4567 7.14306 65.4858 7.34577 65.4858 7.56913V7.90698H63.0645V7.36642H64.6891V7.30448C64.6891 7.19186 64.6684 7.09144 64.6271 7.00322C64.5877 6.91313 64.5276 6.84181 64.4469 6.78925C64.3662 6.7367 64.263 6.71042 64.1372 6.71042C64.0302 6.71042 63.9383 6.73388 63.8613 6.7808C63.7844 6.82773 63.7215 6.89342 63.6727 6.97789C63.6258 7.06235 63.5901 7.16183 63.5657 7.27632C63.5432 7.38894 63.5319 7.51282 63.5319 7.64796V7.76058C63.5319 7.88258 63.5488 7.9952 63.5826 8.09843C63.6182 8.20167 63.668 8.29082 63.7318 8.3659C63.7975 8.44098 63.8763 8.49917 63.9683 8.54046C64.0621 8.58175 64.1682 8.6024 64.2864 8.6024C64.4328 8.6024 64.5689 8.57424 64.6947 8.51794C64.8223 8.45975 64.9321 8.37247 65.0241 8.2561L65.4183 8.68405C65.3544 8.77602 65.2672 8.86424 65.1564 8.9487C65.0476 9.03316 64.9162 9.10261 64.7623 9.15704C64.6083 9.2096 64.4328 9.23587 64.2358 9.23587Z" fill="#545BE8"/>
<path d="M15.2132 0.472778H0.867258C0.818545 0.472778 0.778992 0.512505 0.778992 0.561513V14.3604C0.778992 14.4094 0.818545 14.4491 0.867258 14.4491H15.2132C15.2619 14.4491 15.3012 14.4094 15.3012 14.3604V0.561513C15.3012 0.512505 15.2619 0.472778 15.2132 0.472778Z" fill="#545BE8"/>
<path d="M4.61713 3.54858V11.3733" stroke="white" stroke-width="1.26926"/>
<path d="M6.96185 3.54858V7.44616" stroke="white" stroke-width="1.26685"/>
<path d="M8.74799 3.54883V4.8727H10.9854L12.6084 8.22643H14.0698L11.7488 3.54883H8.74799Z" fill="white"/>
<path d="M9.41284 6.3075V11.5288" stroke="white" stroke-width="1.46628"/>
</svg>
