<svg width="15" height="15" viewBox="0 0 15 15" fill="none" xmlns="http://www.w3.org/2000/svg">
<rect x="1.10351" y="0.425092" width="12.7677" height="14.0077" stroke="white" stroke-width="0.41186"/>
<g clip-path="url(#clip0_32_151)">
<path d="M11.1031 4.62814C10.8285 4.7453 10.5371 4.82221 10.2388 4.8563C10.5495 4.67697 10.7881 4.393 10.9005 4.05465C10.6051 4.22344 10.2819 4.34236 9.94483 4.40627C9.67029 4.12467 9.27919 3.94868 8.84632 3.94868C8.01518 3.94868 7.34132 4.59746 7.34132 5.39764C7.34132 5.51122 7.35464 5.6218 7.38029 5.72788C6.12954 5.66743 5.02063 5.09058 4.27834 4.21392C4.14883 4.42793 4.07461 4.67686 4.07461 4.94237C4.07461 5.44509 4.34032 5.88858 4.74412 6.14844C4.50513 6.14123 4.2714 6.07909 4.06244 5.96718C4.06235 5.97325 4.06235 5.97932 4.06235 5.98542C4.06235 6.68747 4.5811 7.27312 5.26955 7.40624C5.04793 7.46427 4.81547 7.47276 4.58993 7.43107C4.78142 8.00673 5.33723 8.42564 5.99575 8.43736C5.4807 8.82598 4.83177 9.05764 4.12671 9.05764C4.00521 9.05764 3.88544 9.05077 3.7677 9.03739C4.43371 9.44852 5.22476 9.6884 6.07464 9.6884C8.84282 9.6884 10.3565 7.48045 10.3565 5.56568C10.3565 5.50284 10.3551 5.44035 10.3522 5.37822C10.6468 5.17315 10.9011 4.91915 11.1031 4.62814Z" fill="white"/>
</g>
<defs>
<clipPath id="clip0_32_151">
<rect width="7.41348" height="5.76604" fill="white" transform="translate(3.78064 3.9259)"/>
</clipPath>
</defs>
</svg>
